<?xml version="1.0" standalone="no"?>
<!DOCTYPE svg PUBLIC "-//W3C//DTD SVG 20010904//EN"
 "http://www.w3.org/TR/2001/REC-SVG-20010904/DTD/svg10.dtd">
<svg version="1.0" xmlns="http://www.w3.org/2000/svg"
 width="512.000000pt" height="512.000000pt" viewBox="0 0 512.000000 512.000000"
 preserveAspectRatio="xMidYMid meet">

<g transform="translate(0.000000,512.000000) scale(0.100000,-0.100000)"
fill="#000000" stroke="none">
<path d="M2415 4230 c-227 -41 -364 -167 -421 -385 -27 -104 -25 -323 5 -474
25 -130 79 -297 122 -383 16 -32 27 -63 24 -67 -6 -10 -91 -41 -113 -41 -7 0
-36 20 -64 44 -134 118 -327 155 -539 105 l-88 -21 -30 34 c-65 75 -202 109
-301 74 -24 -8 -46 -14 -48 -12 -7 8 20 174 39 231 10 33 31 78 45 99 l26 38
68 -66 c46 -44 76 -66 92 -66 40 0 291 87 305 106 9 13 13 62 13 171 0 141 -2
155 -20 170 -11 10 -102 46 -203 81 -169 58 -187 63 -253 59 -108 -6 -159 -38
-249 -157 -40 -53 -119 -138 -175 -190 -251 -231 -271 -257 -387 -512 -36 -78
-79 -161 -95 -185 -38 -52 -35 -76 22 -169 153 -253 392 -438 658 -512 86 -23
115 -26 252 -27 85 0 169 3 186 7 l32 7 47 -137 c85 -249 195 -454 335 -628
l65 -81 29 -207 c22 -158 34 -213 48 -232 l19 -24 694 0 c652 0 694 1 715 18
20 16 26 44 54 233 l31 215 64 79 c36 44 86 114 113 155 53 83 54 79 -23 123
l-47 27 -56 -88 c-30 -48 -83 -118 -116 -157 -33 -38 -62 -79 -65 -90 -2 -11
-16 -98 -30 -194 -14 -96 -28 -178 -31 -182 -3 -5 -275 -9 -605 -9 -500 0
-601 2 -605 14 -3 7 -18 97 -33 199 l-28 186 -62 73 c-158 185 -296 456 -371
728 -13 47 -31 93 -39 104 -17 20 -34 20 -211 -4 -135 -18 -289 2 -434 57
-151 57 -341 218 -441 372 l-44 68 39 79 c22 43 66 135 99 204 73 156 127 227
230 308 90 72 188 172 252 259 68 93 100 123 144 134 37 10 53 7 198 -42 l157
-54 0 -76 0 -77 -76 -28 -75 -27 -79 78 c-101 101 -122 103 -193 24 -76 -85
-123 -192 -147 -333 -27 -166 -41 -202 -110 -284 -44 -52 -60 -79 -60 -101 0
-34 30 -61 70 -61 41 0 162 63 220 115 56 50 104 75 143 75 43 0 106 -43 140
-95 20 -31 41 -51 54 -53 12 -2 59 9 105 25 73 25 98 28 203 28 110 0 125 -2
180 -28 34 -16 86 -54 122 -88 l63 -61 53 7 c44 6 122 31 188 59 11 5 27 -7
54 -40 95 -115 234 -179 343 -156 85 18 141 50 215 124 l67 68 90 -30 c49 -17
109 -31 133 -32 41 -2 47 1 103 58 84 85 177 124 298 124 55 0 170 -25 233
-51 68 -27 99 -18 133 41 33 56 68 81 122 87 54 6 92 -11 161 -73 53 -47 150
-100 203 -110 50 -9 84 16 84 63 0 30 -9 45 -51 90 -58 61 -93 132 -108 218
-6 33 -16 91 -22 129 -15 90 -75 209 -140 281 -72 78 -87 76 -192 -23 l-82
-79 -75 27 -75 27 -3 76 c-2 43 -1 77 1 77 2 0 68 23 146 50 213 75 245 69
338 -58 60 -81 200 -226 317 -326 86 -75 140 -157 228 -349 37 -83 75 -161 84
-174 14 -23 13 -27 -30 -92 -59 -88 -161 -198 -239 -257 -73 -55 -217 -127
-302 -150 -92 -25 -309 -30 -419 -9 -86 16 -90 16 -115 -3 -19 -14 -32 -43
-52 -113 -15 -52 -39 -126 -53 -164 -15 -38 -23 -72 -19 -76 5 -4 32 -17 62
-29 40 -15 56 -18 62 -9 4 6 24 62 44 123 21 61 41 114 44 118 4 5 56 4 115
-1 383 -29 709 123 951 444 66 88 115 175 115 204 0 12 -11 37 -25 55 -14 18
-58 105 -99 194 -115 251 -163 316 -345 467 -80 67 -140 132 -225 248 -86 116
-154 153 -274 145 -77 -5 -408 -117 -429 -145 -9 -12 -13 -64 -13 -173 0 -140
2 -159 19 -174 19 -17 272 -106 303 -106 10 0 49 30 87 66 l70 65 25 -38 c36
-54 54 -113 71 -225 8 -54 15 -100 15 -102 0 -3 -19 2 -42 10 -104 38 -223 12
-303 -67 l-41 -39 -79 21 c-207 54 -417 13 -546 -108 l-48 -45 -50 12 c-27 6
-57 17 -67 25 -17 12 -16 16 14 79 47 99 98 258 123 387 29 148 32 371 6 469
-53 198 -155 309 -335 367 -61 20 -103 26 -202 28 -69 2 -147 0 -175 -5z m340
-154 c115 -36 195 -119 232 -241 25 -82 24 -313 -1 -440 -74 -372 -261 -665
-426 -665 -134 0 -288 195 -378 480 -43 134 -63 246 -69 385 -12 286 75 437
285 490 75 19 287 14 357 -9z"/>
</g>
</svg>
